<svg width="117" height="25" fill="none" xmlns="http://www.w3.org/2000/svg"><path fill-rule="evenodd" clip-rule="evenodd" d="M82.261 16.4c-1.694-.424-1.694-.441-1.694-1.343 0-.608.062-.898 1.458-.898.958 0 2.368.16 3.275.313a.462.462 0 00.353-.088.44.44 0 00.182-.31l.259-2.02a.464.464 0 00-.364-.496c-1.057-.235-2.514-.389-3.716-.389-4.208 0-5.064 1.539-5.064 3.85 0 2.541.483 3.397 3.701 4.157 2.12.495 2.12.862 2.12 1.473 0 .8-.072 1.078-1.457 1.078-1.118 0-2.411-.168-3.548-.463a.462.462 0 00-.576.354l-.348 1.929a.446.446 0 00.31.506c1.242.39 3.024.655 4.332.655 4.069 0 4.9-1.663 4.9-4.14 0-2.74-.5-3.254-4.128-4.186l.005.018zm-10.552 0c-1.694-.424-1.694-.441-1.694-1.343 0-.608.062-.898 1.457-.898.957 0 2.368.16 3.276.313a.462.462 0 00.353-.088.44.44 0 00.182-.31l.259-2.02a.452.452 0 00-.356-.496c-1.038-.235-2.495-.389-3.697-.389-4.197 0-5.064 1.539-5.064 3.85 0 2.541.492 3.397 3.709 4.157 2.12.495 2.12.862 2.12 1.473 0 .8-.073 1.078-1.457 1.078a14.79 14.79 0 01-3.552-.463.462.462 0 00-.576.354l-.364 1.919a.451.451 0 00.315.507c1.239.39 3.02.655 4.33.655 4.062 0 4.9-1.663 4.9-4.139 0-2.741-.507-3.254-4.135-4.186l-.006.017v.01zM34.36 7.11a.458.458 0 00-.441-.315h-4.314c-.2 0-.383.126-.443.312l-5.444 16.75a.441.441 0 00.07.397.469.469 0 00.373.183h2.969a.465.465 0 00.444-.318l3.75-12.328s.1-.31.437-.31c.346 0 .437.319.437.319l1.74 5.845h-2.332a.46.46 0 00-.437.327l-.674 2.317a.486.486 0 00.073.39.497.497 0 00.383.176h3.98l1.047 3.266a.456.456 0 00.437.313h2.97c.145 0 .287-.07.374-.185a.433.433 0 00.073-.402L34.382 7.08l-.018.028-.005.002zm56.74 4.328h-2.732c-.255 0-.46.2-.46.448V24.02a.46.46 0 00.462.453h2.732a.456.456 0 00.462-.452v-12.13c0-.248-.2-.445-.455-.445l-.01-.007.002-.001zm-38.744-4.97h-2.732c-.255 0-.46.2-.46.448V24.02a.46.46 0 00.462.453h2.732a.455.455 0 00.461-.452v-17.1c0-.248-.2-.445-.455-.445l-.008-.007v-.001zm61.423 4.709c-1.444 0-3.416.485-5.082 1.245l-.201-.654a.452.452 0 00-.442-.323h-2.021c-.255 0-.465.2-.465.448v12.134c0 .247.2.45.455.45h2.733c.255 0 .464-.2.464-.45v-8.402c.984-.486 2.368-.99 3.191-.99.615 0 .843.225.843.822v8.56c0 .252.21.452.465.452h2.732c.255 0 .461-.2.461-.451V15.11c0-2.605-1.057-3.927-3.135-3.927h-.002l.004-.006zM10.506 18.391a.477.477 0 00-.356-.146.502.502 0 00-.411.226c-1.275 1.893-1.931 3.68-2.022 5.474a.514.514 0 00.141.363.48.48 0 00.364.16h3.028a.492.492 0 00.5-.443c.073-.867.347-1.733.857-2.635a.67.67 0 00-.064-.737c-.501-.637-1.114-1.309-2.025-2.234l-.003-.018-.01-.01zm50.708 1.29v1.563a4.783 4.783 0 01-2.258.584c-.847 0-1.111-.247-1.111-1.079 0-.796.163-1.047 1.165-1.047h2.204v-.02zm38.817 0v1.563a4.845 4.845 0 01-2.258.584c-.847 0-1.111-.247-1.111-1.079 0-.796.163-1.047 1.165-1.047h2.204v-.02zM47.307 21.88a.443.443 0 00-.2-.309.467.467 0 00-.367-.062c-.491.117-.947.18-1.311.18-.674 0-.984-.282-.984-.92V14.34h2.65a.458.458 0 00.463-.45v-2.01a.46.46 0 00-.464-.451h-2.641V8.344a.446.446 0 00-.164-.34.469.469 0 00-.365-.106l-2.732.371c-.23.03-.4.219-.4.442v2.724H39.3a.456.456 0 00-.462.449V13.9a.47.47 0 00.473.453h1.487v6.836c0 2.35 1.27 3.537 3.776 3.537.71 0 1.923-.159 2.714-.424a.448.448 0 00.304-.495l-.296-1.92.01-.013.001.006zm12.076-10.696c-1.385 0-3.068.212-4.29.54a.451.451 0 00-.346.504l.315 1.928a.454.454 0 00.192.294c.102.07.229.088.353.07 1.135-.211 2.308-.335 3.3-.335 1.968 0 2.285.407 2.285 1.698v1.132h-2.915c-2.794 0-3.989 1.114-3.989 3.75 0 2.511 1.312 3.944 3.589 3.944a7.47 7.47 0 003.757-1.008l.119.412a.457.457 0 00.446.327h2.219c.255 0 .46-.204.46-.451v-8.066c0-3.466-1.484-4.757-5.482-4.757l-.017.008.004.01zm38.81 0c-1.384 0-3.06.212-4.28.54a.446.446 0 00-.333.504l.32 1.928a.454.454 0 00.19.294c.104.07.232.088.356.07 1.129-.211 2.295-.335 3.297-.335 1.967 0 2.277.407 2.277 1.698v1.132h-2.915c-2.805 0-4 1.114-4 3.75 0 2.511 1.309 3.944 3.588 3.944a7.453 7.453 0 003.753-1.008l.118.412a.458.458 0 00.446.327h2.205a.46.46 0 00.464-.451v-8.066c0-3.466-1.485-4.757-5.483-4.757l.005.008-.007.01zM22.788 6.55a.512.512 0 00-.485-.068 25.5 25.5 0 01-3.188.932c-.2.053-.379.195-.437.372-.729 1.945-2.605 3.802-4.554 5.73-.073.071-.182.177-.364.177a.48.48 0 01-.365-.164C11.428 11.59 9.57 9.75 8.842 7.806a.653.653 0 00-.438-.372 26.173 26.173 0 01-3.187-.937.63.63 0 00-.182-.027.518.518 0 00-.305.1.466.466 0 00-.193.425c.164 1.615.83 3.192 2.013 4.846 1.12 1.557 2.568 2.998 3.98 4.39 2.587 2.565 5.037 4.988 5.254 7.8a.493.493 0 00.495.448h3.042c.136 0 .27-.053.364-.15a.47.47 0 00.137-.36c-.097-1.877-.825-3.758-2.228-5.75a18.766 18.766 0 00-.932-1.221.343.343 0 01.026-.462l.31-.304c1.409-1.388 2.86-2.83 3.98-4.386 1.184-1.65 1.84-3.22 2.008-4.833a.489.489 0 00-.193-.436l.009-.014-.014-.014zM13.772 8c.953 0 1.507-.059 1.7-.059.219 0 .455.177.455.442 0 .071-.018.124-.036.177-.128.326-.71 1.507-1.785 2.52a.504.504 0 01-.346.135.524.524 0 01-.36-.134c-1.074-1.014-1.65-2.194-1.775-2.524-.018-.053-.037-.106-.037-.186 0-.256.225-.451.46-.451.194 0 .746.053 1.7.053h.004l.019.018V8zm77.326-1.527h-2.725a.45.45 0 00-.463.442V9.25c0 .248.208.45.463.45h2.732a.45.45 0 00.462-.443V6.903a.454.454 0 00-.462-.447l-.007.021v-.005zM27.078.902a.636.636 0 00-.51-.247.587.587 0 00-.292.07c-3.734 1.982-8.057 3.03-12.509 3.032-4.45 0-8.774-1.05-12.505-3.033a.568.568 0 00-.291-.07A.627.627 0 00.46.9a.586.586 0 00.118.831 22.648 22.648 0 006.12 3.13 22.749 22.749 0 007.068 1.133c2.417 0 4.794-.39 7.068-1.132a22.707 22.707 0 006.125-3.131.609.609 0 00.119-.849v.02h-.001z" fill="#5982E7"/></svg>