<svg width="117" height="29" fill="none" xmlns="http://www.w3.org/2000/svg"><path fill-rule="evenodd" clip-rule="evenodd" d="M105.843 17.637c0-2.304-.97-4.97-3.987-8.687L94.579 0H84.447l5.768 6.279c.972 1.047 2.21 1.988 2.21 1.988-1.403-.784-3.179-1.098-4.582-1.098-3.34 0-6.736.68-9.754 2.303-3.233 1.726-5.392 4.604-5.392 8.426 0 2.93 1.35 5.18 3.074 6.907 3.88 3.77 10.941 4.135 13.529 4.135 3.827 0 9.81-.838 13.204-3.82 1.996-1.78 3.343-4.24 3.343-7.482l-.004-.001zM117 7.745h-8.785V28.26H117V7.745zM44.779 28.26L25.375 0H14.488l3.009 3.453L.42 28.26h9.81l2.926-4.657h18.501l2.987 4.655H44.78v.002zm25.708-8.583V7.745h-8.514v9.159c0 2.617-.11 3.348-.27 4.028-.593 1.884-2.642 2.72-4.746 2.72-2.91 0-4.258-1.099-4.795-2.826-.164-.575-.216-1.201-.27-1.83-.054-.68 0-1.413 0-2.198V7.745H43.27v11.983c0 2.671.916 4.658 2.425 6.02 2.587 2.459 6.953 3.193 10.996 3.193 4.905 0 8.68-.681 11.373-3.246 1.403-1.309 2.427-3.035 2.427-6.018h-.003zm26.95-1.78c0 2.145-1.456 3.768-3.288 4.658-1.509.785-3.288.994-4.852.994-1.563 0-3.395-.312-4.904-1.046-1.833-.89-3.234-2.616-3.234-4.502 0-2.249 1.778-4.028 3.88-4.919 1.293-.576 2.857-.785 4.096-.785 1.186 0 2.912.157 4.258.681 2.426.995 4.043 2.878 4.043 4.92zm-69.199.19H16.512l5.843-9.361 5.884 9.362z" fill="#D6DAE5"/></svg>