<svg width="117" height="23" fill="none" xmlns="http://www.w3.org/2000/svg"><path fill-rule="evenodd" clip-rule="evenodd" d="M115.316 20.076c.795 0 1.428.628 1.428 1.415 0 .796-.633 1.416-1.435 1.416a1.42 1.42 0 01-1.439-1.416c0-.787.645-1.415 1.439-1.415h.007zm-91.94 2.641h-3.934l-.168-.964a9.262 9.262 0 01-4.457 1.122c-2.887 0-4.423-1.868-4.423-4.454 0-3.05 1.792-4.139 4.998-4.139h3.26v-.658c0-1.556-.181-2.013-2.659-2.013H11.97l.395-3.82h4.413c5.414 0 6.602 1.663 6.602 5.865v9.061h-.004zm58.617-5.99c0 3.113-1.324 6.132-6.867 6.132-5.549 0-6.898-3.02-6.898-6.132V13.72c0-3.113 1.348-6.132 6.896-6.132 5.556 0 6.886 3.019 6.886 6.134v3.006l-.017-.001zm15.115 0c0 3.113-1.326 6.132-6.867 6.132-5.55 0-6.9-3.02-6.9-6.132V13.72c0-3.113 1.348-6.132 6.898-6.132 5.538 0 6.867 3.019 6.867 6.134v3.006l.002-.001zm18.201 3.572c-.637 0-1.166.531-1.166 1.19 0 .673.529 1.2 1.173 1.2.647.018 1.166-.513 1.166-1.185 0-.655-.519-1.189-1.166-1.189h-.007V20.3zM7.245 22.687H2.527V11.615H.166v-3.82h2.359V5.504c0-3.113 1.33-4.967 5.115-4.967h3.151v3.82H8.824c-1.476 0-1.574.532-1.574 1.53l-.018 1.91h3.57l-.419 3.82h-3.15v11.072l.012-.002zm107.793-.371h-.259v-1.58c.146-.017.273-.035.474-.035.249 0 .411.048.51.117.098.07.145.176.145.327 0 .207-.138.332-.309.384v.012c.138.025.236.149.273.382.036.244.073.34.098.39h-.273c-.036-.05-.078-.195-.109-.4-.037-.204-.146-.278-.35-.278h-.182v.679l-.018.002zm0-.876h.187c.213 0 .394-.076.394-.27 0-.138-.102-.276-.394-.276-.084 0-.145.005-.187.012v.534zm-99.924-3.077c0 .835.408 1.268 1.304 1.268.965 0 1.534-.304 2.237-.62v-1.67h-2.106c-.998 0-1.435.176-1.435 1.02v.002zM60.182 11.4c-.965 0-1.658.3-2.36.619v7.04c.673.061 1.06.061 1.7.061 2.314 0 2.627-1.025 2.627-2.458v-3.368c0-1.054-.364-1.905-1.967-1.905v.01zm14.928 0c-1.607 0-2.163.849-2.163 1.893v3.855c0 1.061.556 1.91 2.163 1.91 1.603 0 2.16-.849 2.16-1.91v-3.856c0-1.054-.565-1.904-2.168-1.904l.008.012zm-38.357.478c-2.448-.407-3.15-.496-4.328-.496-2.116 0-2.755.448-2.755 2.194v3.29c0 1.741.637 2.192 2.755 2.192 1.179 0 1.88-.088 4.328-.495v3.722c-2.144.468-3.54.59-4.721.59-5.067 0-7.082-2.582-7.082-6.314v-2.67c0-3.74 2.015-6.327 7.082-6.327 1.18 0 2.578.123 4.721.592v3.722zm14.773 4.687H42.87v.3c0 1.742.638 2.194 2.754 2.194 1.904 0 3.06-.089 5.505-.496v3.722c-2.355.468-3.583.59-5.896.59-5.064 0-7.068-2.582-7.068-6.314v-3.06c0-3.267 1.494-5.943 6.685-5.943 5.2 0 6.685 2.644 6.685 5.943v3.06l-.009.004zM90.223 11.4c-1.603 0-2.159.849-2.159 1.898v3.86c0 1.062.556 1.911 2.159 1.911 1.603 0 2.168-.849 2.168-1.91v-3.863c0-1.056-.565-1.907-2.168-1.907v.01zm22.399 11.284h-5.113l-4.328-7.004v7.004h-4.718V1.678l4.718-.76V14.44l4.326-6.65h5.101l-4.727 7.251 4.723 7.64.018.004zM44.837 11.012c-1.603 0-1.967.849-1.967 1.91v.589h3.935v-.594c0-1.044-.365-1.9-1.968-1.9v-.005zm22.034 5.624c0 3.609-1.075 6.244-7.523 6.244-2.325 0-3.69-.202-6.259-.584V1.675l4.718-.76v7.21c1.02-.368 2.34-.553 3.543-.553 4.717 0 5.5 2.051 5.5 5.346v3.733l.02-.015z" fill="#D6DAE5"/></svg>